<svg width="2093" height="1191" viewBox="0 0 2093 1191" fill="none" xmlns="http://www.w3.org/2000/svg">
<g clip-path="url(#clip0_40_14)">
<path d="M1272.99 360.807C1380.05 467.866 1397.32 630.709 1324.82 755.772C1324.47 756.37 1323.63 756.443 1323.18 755.919C1320.96 753.332 1318.57 750.761 1316.02 748.204C1299.97 732.16 1281.74 718.302 1261.33 706.63C1240.91 694.958 1219.4 683.649 1196.8 672.705C1173.83 662.125 1151.05 649.906 1128.44 636.046C1106.1 622.343 1084.64 605.257 1064.07 584.786C1063.68 584.397 1063.68 583.762 1064.07 583.372L1072.13 575.309C1072.44 575 1072.91 574.927 1073.3 575.13L1141.55 610.901C1172.18 626.951 1196.6 633.887 1214.82 631.708C1233.05 629.529 1249.26 621.335 1263.47 607.126C1271.85 598.746 1278.59 587.996 1283.69 574.877C1288.06 561.757 1289.14 547.907 1286.95 533.327C1284.39 518.382 1276.92 504.711 1264.52 492.313C1252.12 479.916 1238.27 471.527 1222.96 467.146C1207.65 462.766 1189.97 460.389 1169.92 460.016C1149.15 459.643 1125.82 459.634 1099.94 459.987L926.627 461.555C919.338 461.552 913.325 463.918 908.588 468.654C903.488 473.755 900.939 479.95 900.942 487.24L899.373 660.553C898.656 686.795 898.665 710.123 899.403 730.534C899.776 750.581 902.152 768.26 906.533 783.57C910.913 798.88 919.302 812.734 931.7 825.132C944.462 837.894 958.134 845.371 972.714 847.564C987.295 849.757 1001.33 848.488 1014.81 843.756C1027.57 839.023 1038.32 832.284 1047.06 823.54C1060.9 809.695 1068.92 793.661 1071.1 775.437C1073.27 757.214 1066.34 732.79 1050.29 702.167L1015.05 633.366C1014.86 632.979 1014.93 632.51 1015.24 632.203L1023.31 624.135C1023.7 623.744 1024.33 623.745 1024.72 624.136C1045.19 644.705 1062.28 666.163 1075.98 688.51C1089.84 711.114 1102.24 733.717 1113.18 756.32C1123.76 778.558 1134.71 799.703 1146.02 819.754C1157.32 839.805 1170.63 857.489 1185.95 872.804C1188.56 875.329 1191.18 877.7 1193.79 879.919C1194.34 880.379 1194.25 881.245 1193.62 881.575C1070.29 946.249 914.346 926.76 810.691 823.104C685.635 698.049 730.443 300.667 732.324 284.505C732.377 284.048 732.643 283.966 733.1 283.912C745.642 282.421 920.393 262.379 1074.32 283.906C1074.72 283.962 1075.04 284.249 1075.15 284.636L1097.84 368.87C1098.14 369.998 1099.81 369.779 1099.81 368.61L1099.81 289.087C1099.81 288.466 1100.37 287.995 1100.98 288.103C1171.35 300.498 1234.88 322.7 1272.99 360.807Z" fill="#F4821E"/>
</g>
<defs>
<clipPath id="clip0_40_14">
<rect width="1191" height="2093" fill="white" transform="translate(2093) rotate(90)"/>
</clipPath>
</defs>
</svg>
