<svg width="2093" height="1191" viewBox="0 0 2093 1191" fill="none" xmlns="http://www.w3.org/2000/svg">
<g clip-path="url(#clip0_40_10)">
<path d="M409.069 420.616C488.559 500.168 501.501 621.099 447.897 714.127C447.504 714.808 446.552 714.892 446.037 714.298C444.49 712.515 442.836 710.742 441.074 708.979C429.141 697.036 415.582 686.721 400.397 678.033C385.212 669.344 369.213 660.927 352.402 652.781C335.319 644.906 318.372 635.809 301.559 625.493C285.039 615.355 269.173 602.729 253.959 587.615C253.514 587.172 253.513 586.451 253.957 586.007L259.471 580.487C259.823 580.135 260.363 580.053 260.803 580.284L311.311 606.777C334.088 618.724 352.254 623.887 365.808 622.265C379.363 620.643 391.424 614.542 401.992 603.966C408.225 597.728 413.237 589.727 417.028 579.962C420.277 570.196 421.086 559.887 419.455 549.034C417.553 537.909 411.991 527.732 402.77 518.504C393.548 509.276 383.244 503.031 371.856 499.771C360.469 496.51 347.32 494.741 332.41 494.464C316.958 494.186 299.607 494.179 280.359 494.442L151.453 495.609C146.031 495.607 141.559 497.368 138.036 500.894C134.243 504.691 132.347 509.302 132.349 514.728L131.184 643.735C130.65 663.269 130.656 680.633 131.205 695.826C131.482 710.748 133.251 723.908 136.509 735.304C139.766 746.7 146.005 757.013 155.226 766.241C164.718 775.741 174.887 781.307 185.732 782.939C196.576 784.572 207.013 783.626 217.043 780.103C226.529 776.58 234.525 771.564 241.029 765.056C251.326 754.751 257.285 742.816 258.906 729.251C260.527 715.687 255.368 697.506 243.43 674.711L217.354 623.753C217.13 623.314 217.214 622.779 217.562 622.43L223.083 616.905C223.527 616.46 224.247 616.461 224.69 616.907C239.792 632.132 252.409 648.012 262.539 664.545C272.847 681.371 282.071 698.196 290.211 715.02C298.08 731.574 306.22 747.312 314.63 762.238C323.04 777.163 332.941 790.326 344.332 801.726C346.126 803.462 347.922 805.1 349.72 806.641C350.334 807.168 350.23 808.154 349.512 808.528C257.871 856.341 142.174 841.743 65.2234 764.732C-26.7556 672.681 4.81023 382.405 6.87609 364.326C6.93551 363.806 7.25156 363.408 7.77098 363.347C19.0019 362.022 147.578 347.505 261.05 363.338C261.502 363.401 261.869 363.728 261.988 364.168L278.024 423.747C278.37 425.031 280.259 424.781 280.259 423.451V367.699C280.259 366.992 280.898 366.457 281.593 366.58C333.753 375.822 380.81 392.334 409.069 420.616Z" fill="#F4821E"/>
<path d="M699.697 720.235C688.651 720.235 679.924 716.854 673.517 710.092C667.111 703.104 663.686 694.088 663.245 683.043C662.361 663.883 657.611 650.359 648.995 642.469C640.6 634.355 629.333 630.297 615.194 630.297H608.566V684.395C608.566 696.117 605.473 705.02 599.287 711.106C593.101 717.192 584.927 720.235 574.764 720.235C563.939 720.235 555.433 717.192 549.248 711.106C543.062 705.02 539.969 696.117 539.969 684.395V636.722C539.969 612.828 543.393 594.683 550.242 582.286C557.311 569.888 566.259 560.984 577.084 555.575L575.427 549.151H570.125C559.962 549.151 551.899 545.882 545.934 539.345C540.19 532.583 537.097 523.454 536.655 511.958C536.434 500.688 539.416 491.559 545.602 484.571C551.788 477.584 559.962 474.09 570.125 474.09L654.628 474.09C678.267 474.09 697.377 479.95 711.958 491.672C726.539 503.393 733.83 522.102 733.83 547.798C733.83 561.097 731.621 572.255 727.202 581.271C722.784 590.062 717.15 596.824 710.301 601.558C703.453 606.291 696.273 609.109 688.761 610.011V614.406C702.459 617.787 713.726 625.226 722.563 636.722C731.621 648.217 736.15 663.658 736.15 683.043C736.15 695.44 732.836 704.795 726.208 711.106C719.801 717.192 710.964 720.235 699.697 720.235ZM606.909 578.566C606.909 583.525 607.793 586.794 609.56 588.372C611.327 589.949 614.641 590.738 619.502 590.738H650.652C659.931 590.738 666.669 588.597 670.866 584.314C675.064 580.031 677.163 574.058 677.163 566.394C677.163 558.505 675.064 552.419 670.866 548.136C666.669 543.854 659.931 541.712 650.652 541.712H619.502C614.641 541.712 611.327 542.388 609.56 543.741C607.793 545.093 606.909 548.362 606.909 553.546L606.909 578.566Z" fill="#F4821E"/>
<path d="M832.112 719.559C821.287 719.559 810.903 718.545 800.962 716.516C791.241 714.487 782.625 710.655 775.113 705.02C767.823 699.16 761.968 690.819 757.55 680C753.352 668.955 751.254 654.529 751.254 636.722C751.254 620.718 753.352 606.968 757.55 595.472C761.747 583.976 766.718 574.847 772.462 568.085C778.427 561.323 783.84 557.153 788.7 555.575L787.043 549.151H781.41C771.247 549.151 763.184 545.882 757.219 539.345C751.584 532.712 748.607 523.802 748.287 512.615C748.281 512.397 748.275 512.178 748.271 511.958C748.05 500.688 750.922 491.672 756.887 484.909C763.073 478.147 771.247 474.766 781.41 474.766L900.378 474.766C924.017 474.766 935.836 486.036 935.836 508.577C935.836 518.721 932.964 526.835 927.22 532.921C921.476 539.007 912.528 542.05 900.378 542.05H831.781C823.606 542.05 819.519 546.897 819.519 556.589V581.947C830.565 579.468 842.054 576.538 853.983 573.157C866.134 569.775 877.622 568.085 888.448 568.085C898.831 568.085 906.563 570.452 911.645 575.185C916.947 579.693 919.598 585.892 919.598 593.781C919.598 601.896 916.947 608.32 911.645 613.054C906.563 617.562 898.831 619.929 888.448 620.154C877.622 620.38 866.134 618.802 853.983 615.421C841.833 612.039 830.234 609.109 819.188 606.63L819.188 650.922C819.188 655.205 820.293 658.248 822.502 660.051C824.932 661.629 828.688 660.953 833.769 658.023C844.815 651.486 855.64 646.301 866.245 642.47C876.849 638.412 887.233 636.383 897.395 636.384C911.755 636.384 922.581 640.215 929.871 647.879C937.382 655.543 941.138 665.574 941.138 677.971C941.138 691.27 937.162 701.526 929.208 708.739C921.476 715.953 908.883 719.559 891.43 719.559L832.112 719.559Z" fill="#F4821E"/>
<path d="M1058.78 720.912C1037.12 720.912 1017.57 716.403 1000.12 707.387C982.888 698.145 969.301 684.508 959.359 666.475C949.418 648.443 944.447 626.24 944.447 599.867C944.447 573.495 949.418 550.728 959.359 531.569C969.522 512.409 983.33 497.758 1000.78 487.614C1018.46 477.246 1038.56 472.061 1061.09 472.061C1087.16 472.061 1107.16 475.78 1121.08 483.219C1134.99 490.657 1141.95 501.702 1141.95 516.354C1141.95 527.624 1138.97 536.979 1133.01 544.417C1127.04 551.63 1118.87 555.237 1108.48 555.237C1099.65 555.237 1091.03 554.11 1082.64 551.856C1074.46 549.376 1064.85 548.136 1053.8 548.136C1039.67 548.136 1028.51 552.306 1020.33 560.646C1012.16 568.987 1008.07 579.919 1008.07 593.443C1008.07 606.742 1012.16 617.9 1020.33 626.916C1028.51 635.707 1039.67 640.103 1053.8 640.103C1061.32 640.103 1068.16 639.539 1074.35 638.412C1080.76 637.06 1086.94 635.707 1092.91 634.355C1099.09 633.002 1105.72 632.326 1112.79 632.326C1124.5 632.326 1133.12 636.271 1138.64 644.16C1144.16 651.824 1146.92 661.404 1146.92 672.9C1146.92 684.395 1142.84 693.75 1134.66 700.963C1126.49 707.951 1115.66 713.022 1102.19 716.178C1088.93 719.334 1074.46 720.912 1058.78 720.912Z" fill="#F4821E"/>
<path d="M1200.27 720.912C1190.11 720.912 1181.83 717.756 1175.42 711.444C1169.01 705.133 1165.81 697.131 1165.81 687.438L1165.81 508.577C1165.81 498.659 1168.9 490.319 1175.09 483.557C1181.5 476.795 1189.89 473.414 1200.27 473.414C1211.32 473.414 1219.94 476.795 1226.12 483.557C1232.53 490.094 1235.73 498.208 1235.73 507.901V687.438C1235.73 697.131 1232.31 705.133 1225.46 711.444C1218.83 717.756 1210.44 720.912 1200.27 720.912Z" fill="#F4821E"/>
<path d="M1257.07 506.887C1257.07 496.518 1260.16 488.516 1266.35 482.881C1272.76 477.02 1280.93 474.09 1290.87 474.09C1301.26 474.09 1309.54 477.02 1315.73 482.881C1321.91 488.516 1325.01 496.518 1325.01 506.887V650.922C1325.01 655.205 1326.11 658.248 1328.32 660.051C1330.53 661.629 1334.17 660.953 1339.26 658.023C1350.3 651.486 1360.13 646.302 1368.75 642.47C1377.36 638.412 1386.86 636.384 1397.25 636.384C1411.61 636.384 1422.43 640.216 1429.72 647.879C1437.01 655.543 1440.66 665.574 1440.66 677.971C1440.66 691.27 1436.68 701.527 1428.73 708.74C1421 715.953 1408.51 719.559 1391.28 719.559H1323.02C1308.44 719.559 1296.29 717.869 1286.56 714.487C1276.84 710.881 1269.44 704.457 1264.36 695.215C1259.5 685.973 1257.07 672.562 1257.07 654.98L1257.07 506.887Z" fill="#F4821E"/>
<path d="M1543.07 721.25C1519.43 721.25 1499.44 715.953 1483.09 705.358C1466.74 694.764 1454.37 680.113 1445.97 661.404C1437.58 642.695 1433.38 621.169 1433.38 596.825C1433.38 572.706 1437.58 551.292 1445.97 532.583C1454.37 513.649 1466.74 498.885 1483.09 488.291C1499.44 477.471 1519.43 472.061 1543.07 472.061C1566.71 472.061 1586.59 477.471 1602.72 488.291C1619.07 498.885 1631.44 513.649 1639.84 532.583C1648.23 551.292 1652.43 572.706 1652.43 596.825C1652.43 621.169 1648.23 642.695 1639.84 661.404C1631.44 680.113 1619.07 694.764 1602.72 705.358C1586.59 715.953 1566.71 721.25 1543.07 721.25ZM1475.14 591.415C1475.14 598.402 1476.79 605.052 1480.11 611.363C1483.42 617.449 1489.94 622.408 1499.66 626.24C1509.38 629.847 1523.85 631.65 1543.07 631.65C1562.29 631.65 1576.65 629.847 1586.15 626.24C1595.87 622.408 1602.39 617.449 1605.7 611.363C1609.02 605.052 1610.67 598.402 1610.67 591.415C1610.67 584.202 1609.02 577.778 1605.7 572.142C1602.39 566.282 1595.87 561.661 1586.15 558.28C1576.65 554.673 1562.29 552.87 1543.07 552.87C1523.85 552.87 1509.38 554.673 1499.66 558.28C1489.94 561.661 1483.42 566.282 1480.11 572.142C1476.79 577.778 1475.14 584.202 1475.14 591.415Z" fill="#F4821E"/>
<path d="M1775.43 721.25C1751.79 721.25 1731.8 715.953 1715.45 705.358C1699.1 694.764 1686.73 680.113 1678.33 661.404C1669.94 642.695 1665.74 621.169 1665.74 596.825C1665.74 572.706 1669.94 551.292 1678.33 532.583C1686.73 513.649 1699.1 498.885 1715.45 488.291C1731.8 477.471 1751.79 472.061 1775.43 472.061C1799.07 472.061 1818.95 477.471 1835.08 488.291C1851.43 498.885 1863.8 513.649 1872.19 532.583C1880.59 551.292 1884.79 572.706 1884.79 596.825C1884.79 621.169 1880.59 642.695 1872.19 661.404C1863.8 680.113 1851.43 694.764 1835.08 705.358C1818.95 715.953 1799.07 721.25 1775.43 721.25ZM1707.5 591.415C1707.5 598.402 1709.15 605.052 1712.47 611.363C1715.78 617.449 1722.3 622.408 1732.02 626.24C1741.74 629.847 1756.21 631.65 1775.43 631.65C1794.65 631.65 1809.01 629.847 1818.51 626.24C1828.23 622.408 1834.75 617.449 1838.06 611.363C1841.38 605.052 1843.03 598.402 1843.03 591.415C1843.03 584.202 1841.38 577.778 1838.06 572.142C1834.75 566.282 1828.23 561.661 1818.51 558.28C1809.01 554.673 1794.65 552.87 1775.43 552.87C1756.21 552.87 1741.74 554.673 1732.02 558.28C1722.3 561.661 1715.78 566.282 1712.47 572.142C1709.15 577.778 1707.5 584.202 1707.5 591.415Z" fill="#F4821E"/>
<path d="M1967.73 642.132V684.396C1967.73 696.117 1964.64 705.02 1958.45 711.106C1952.49 717.192 1944.53 720.235 1934.59 720.235H1934.26C1923.43 720.235 1914.82 717.192 1908.41 711.106C1902.23 705.02 1899.13 696.117 1899.13 684.396V636.722C1899.13 612.829 1902.67 594.683 1909.74 582.286C1916.81 569.888 1925.75 560.985 1936.58 555.575L1934.92 549.151H1929.29C1919.13 549.151 1911.06 545.882 1905.1 539.346C1899.35 532.583 1896.37 523.454 1896.15 511.958C1895.93 500.688 1898.8 491.559 1904.77 484.571C1910.95 477.584 1919.13 474.09 1929.29 474.09L2016.44 474.09C2038.76 474.09 2056.87 480.965 2070.79 494.715C2084.93 508.239 2092 529.653 2092 558.956C2092 580.144 2088.35 596.825 2081.06 608.997C2073.77 621.169 2064.16 629.734 2052.23 634.693C2040.3 639.652 2027.38 642.132 2013.46 642.132H1967.73ZM1963.42 576.876C1963.42 581.835 1964.31 585.103 1966.07 586.681C1968.06 588.259 1971.49 589.048 1976.35 589.048H2007.16C2016.44 589.048 2023.18 586.907 2027.38 582.624C2031.58 578.116 2033.68 571.804 2033.68 563.69C2033.68 555.575 2031.58 549.376 2027.38 545.093C2023.18 540.811 2016.44 538.669 2007.16 538.669H1976.35C1971.49 538.669 1968.06 539.346 1966.07 540.698C1964.31 542.05 1963.42 545.319 1963.42 550.503V576.876Z" fill="#F4821E"/>
<path d="M539.969 636.722C539.969 612.828 543.393 594.683 550.242 582.286C557.311 569.888 566.259 560.984 577.084 555.575L575.427 549.151H570.125C559.962 549.151 551.899 545.882 545.934 539.345C540.19 532.583 537.097 523.454 536.655 511.958L539.969 636.722Z" fill="#F4821E"/>
<path d="M751.254 636.722C751.254 620.718 753.352 606.968 757.55 595.472C761.747 583.976 766.718 574.847 772.462 568.085C778.427 561.323 783.84 557.153 788.7 555.575L787.043 549.151H781.41C771.247 549.151 763.184 545.882 757.219 539.345C751.584 532.712 748.607 523.802 748.287 512.615L751.254 636.722Z" fill="#F4821E"/>
</g>
<defs>
<clipPath id="clip0_40_10">
<rect width="1191" height="2093" fill="white" transform="translate(2093) rotate(90)"/>
</clipPath>
</defs>
</svg>
